<mxfile host="app.diagrams.net" agent="Mozilla/5.0 (X11; Linux x86_64) AppleWebKit/537.36 (KHTML, like Gecko) Chrome/127.0.0.0 Safari/537.36" version="24.7.10">
  <diagram name="Page-1" id="9lVkB7LKto9DbTQY3sE0">
    <mxGraphModel dx="2537" dy="933" grid="1" gridSize="10" guides="1" tooltips="1" connect="1" arrows="1" fold="1" page="1" pageScale="1" pageWidth="850" pageHeight="1100" math="0" shadow="0">
      <root>
        <mxCell id="0" />
        <mxCell id="1" parent="0" />
        <mxCell id="20j-oGCyZuhSlshfEf6K-1" value="" style="rounded=0;whiteSpace=wrap;html=1;" vertex="1" parent="1">
          <mxGeometry x="10" y="40" width="190" height="880" as="geometry" />
        </mxCell>
        <mxCell id="20j-oGCyZuhSlshfEf6K-2" value="" style="rounded=0;whiteSpace=wrap;html=1;" vertex="1" parent="1">
          <mxGeometry x="-520" y="40" width="453" height="320" as="geometry" />
        </mxCell>
        <mxCell id="20j-oGCyZuhSlshfEf6K-3" style="edgeStyle=orthogonalEdgeStyle;rounded=0;orthogonalLoop=1;jettySize=auto;html=1;exitX=1;exitY=0.5;exitDx=0;exitDy=0;entryX=0;entryY=0.5;entryDx=0;entryDy=0;fontSize=16;" edge="1" parent="1" source="20j-oGCyZuhSlshfEf6K-4" target="20j-oGCyZuhSlshfEf6K-5">
          <mxGeometry relative="1" as="geometry" />
        </mxCell>
        <mxCell id="20j-oGCyZuhSlshfEf6K-4" value="Api" style="text;html=1;strokeColor=#6c8ebf;fillColor=#dae8fc;align=center;verticalAlign=middle;whiteSpace=wrap;rounded=0;" vertex="1" parent="1">
          <mxGeometry x="-520" y="40" width="453" height="30" as="geometry" />
        </mxCell>
        <mxCell id="20j-oGCyZuhSlshfEf6K-5" value="FHIRest core" style="text;html=1;strokeColor=#6c8ebf;fillColor=#dae8fc;align=center;verticalAlign=middle;whiteSpace=wrap;rounded=0;" vertex="1" parent="1">
          <mxGeometry x="10" y="40" width="190" height="30" as="geometry" />
        </mxCell>
        <mxCell id="20j-oGCyZuhSlshfEf6K-6" value="" style="rounded=0;whiteSpace=wrap;html=1;direction=south;dashed=1;" vertex="1" parent="1">
          <mxGeometry x="-310" y="80" width="210" height="220" as="geometry" />
        </mxCell>
        <mxCell id="20j-oGCyZuhSlshfEf6K-7" value="" style="rounded=0;whiteSpace=wrap;html=1;dashed=1;" vertex="1" parent="1">
          <mxGeometry x="-300" y="90" width="210" height="220" as="geometry" />
        </mxCell>
        <mxCell id="20j-oGCyZuhSlshfEf6K-8" value="" style="rounded=0;whiteSpace=wrap;html=1;" vertex="1" parent="1">
          <mxGeometry x="-290" y="100" width="210" height="220" as="geometry" />
        </mxCell>
        <mxCell id="20j-oGCyZuhSlshfEf6K-9" value="Default: REST" style="text;html=1;strokeColor=#666666;fillColor=#f5f5f5;align=center;verticalAlign=middle;whiteSpace=wrap;rounded=0;fontColor=#333333;" vertex="1" parent="1">
          <mxGeometry x="-290" y="100" width="210" height="30" as="geometry" />
        </mxCell>
        <mxCell id="20j-oGCyZuhSlshfEf6K-10" style="edgeStyle=orthogonalEdgeStyle;rounded=0;orthogonalLoop=1;jettySize=auto;html=1;exitX=0;exitY=0.5;exitDx=0;exitDy=0;exitPerimeter=0;entryX=1;entryY=0.5;entryDx=0;entryDy=0;fontSize=16;" edge="1" parent="1" source="20j-oGCyZuhSlshfEf6K-12" target="20j-oGCyZuhSlshfEf6K-20">
          <mxGeometry relative="1" as="geometry">
            <Array as="points">
              <mxPoint x="-340" y="225" />
              <mxPoint x="-340" y="188" />
            </Array>
          </mxGeometry>
        </mxCell>
        <mxCell id="20j-oGCyZuhSlshfEf6K-11" style="edgeStyle=orthogonalEdgeStyle;rounded=0;orthogonalLoop=1;jettySize=auto;html=1;exitX=0;exitY=0.5;exitDx=0;exitDy=0;exitPerimeter=0;entryX=0.996;entryY=0.458;entryDx=0;entryDy=0;entryPerimeter=0;fontSize=16;" edge="1" parent="1" source="20j-oGCyZuhSlshfEf6K-12" target="20j-oGCyZuhSlshfEf6K-26">
          <mxGeometry relative="1" as="geometry">
            <Array as="points">
              <mxPoint x="-340" y="225" />
              <mxPoint x="-340" y="263" />
            </Array>
          </mxGeometry>
        </mxCell>
        <mxCell id="20j-oGCyZuhSlshfEf6K-12" value="" style="shape=providedRequiredInterface;html=1;verticalLabelPosition=bottom;sketch=0;fontSize=16;rotation=-180;direction=west;" vertex="1" parent="1">
          <mxGeometry x="-300" y="215" width="20" height="20" as="geometry" />
        </mxCell>
        <mxCell id="20j-oGCyZuhSlshfEf6K-13" value="Request/Response filters" style="text;html=1;strokeColor=none;fillColor=none;align=center;verticalAlign=middle;whiteSpace=wrap;rounded=0;fontSize=16;" vertex="1" parent="1">
          <mxGeometry x="-285" y="210" width="195" height="30" as="geometry" />
        </mxCell>
        <mxCell id="20j-oGCyZuhSlshfEf6K-14" value="Endpoint definitions" style="text;html=1;strokeColor=none;fillColor=none;align=center;verticalAlign=middle;whiteSpace=wrap;rounded=0;fontSize=16;" vertex="1" parent="1">
          <mxGeometry x="-235" y="130" width="155" height="40" as="geometry" />
        </mxCell>
        <mxCell id="20j-oGCyZuhSlshfEf6K-15" style="edgeStyle=orthogonalEdgeStyle;rounded=0;orthogonalLoop=1;jettySize=auto;html=1;exitX=0;exitY=0.5;exitDx=0;exitDy=0;exitPerimeter=0;entryX=1;entryY=0.5;entryDx=0;entryDy=0;fontSize=16;" edge="1" parent="1" source="20j-oGCyZuhSlshfEf6K-16" target="20j-oGCyZuhSlshfEf6K-18">
          <mxGeometry relative="1" as="geometry">
            <Array as="points">
              <mxPoint x="-320" y="190" />
              <mxPoint x="-320" y="123" />
            </Array>
          </mxGeometry>
        </mxCell>
        <mxCell id="20j-oGCyZuhSlshfEf6K-16" value="" style="shape=providedRequiredInterface;html=1;verticalLabelPosition=bottom;sketch=0;fontSize=16;rotation=-180;direction=west;" vertex="1" parent="1">
          <mxGeometry x="-300" y="180" width="20" height="20" as="geometry" />
        </mxCell>
        <mxCell id="20j-oGCyZuhSlshfEf6K-17" value="Resource overwrite" style="text;html=1;strokeColor=none;fillColor=none;align=center;verticalAlign=middle;whiteSpace=wrap;rounded=0;fontSize=16;" vertex="1" parent="1">
          <mxGeometry x="-283" y="175" width="150" height="30" as="geometry" />
        </mxCell>
        <mxCell id="20j-oGCyZuhSlshfEf6K-18" value="" style="rounded=1;whiteSpace=wrap;html=1;fontSize=16;" vertex="1" parent="1">
          <mxGeometry x="-500" y="102.5" width="130" height="40" as="geometry" />
        </mxCell>
        <mxCell id="20j-oGCyZuhSlshfEf6K-19" value="Binary" style="text;html=1;strokeColor=none;fillColor=none;align=center;verticalAlign=middle;whiteSpace=wrap;rounded=0;dashed=1;fontSize=16;" vertex="1" parent="1">
          <mxGeometry x="-465" y="107.5" width="60" height="30" as="geometry" />
        </mxCell>
        <mxCell id="20j-oGCyZuhSlshfEf6K-20" value="" style="rounded=1;whiteSpace=wrap;html=1;fontSize=16;shadow=0;sketch=0;glass=0;gradientColor=none;" vertex="1" parent="1">
          <mxGeometry x="-500" y="157.5" width="130" height="60" as="geometry" />
        </mxCell>
        <mxCell id="20j-oGCyZuhSlshfEf6K-21" value="Authentication" style="text;html=1;strokeColor=none;fillColor=none;align=center;verticalAlign=middle;whiteSpace=wrap;rounded=0;shadow=0;glass=0;dashed=1;sketch=0;fontSize=16;" vertex="1" parent="1">
          <mxGeometry x="-465" y="172.5" width="60" height="30" as="geometry" />
        </mxCell>
        <mxCell id="20j-oGCyZuhSlshfEf6K-22" style="edgeStyle=orthogonalEdgeStyle;rounded=0;orthogonalLoop=1;jettySize=auto;html=1;exitX=0;exitY=0.5;exitDx=0;exitDy=0;exitPerimeter=0;entryX=1;entryY=0.5;entryDx=0;entryDy=0;fontSize=16;" edge="1" parent="1" source="20j-oGCyZuhSlshfEf6K-23" target="20j-oGCyZuhSlshfEf6K-24">
          <mxGeometry relative="1" as="geometry" />
        </mxCell>
        <mxCell id="20j-oGCyZuhSlshfEf6K-23" value="" style="shape=providedRequiredInterface;html=1;verticalLabelPosition=bottom;sketch=0;fontSize=16;rotation=-180;direction=west;" vertex="1" parent="1">
          <mxGeometry x="-510" y="177.5" width="20" height="20" as="geometry" />
        </mxCell>
        <mxCell id="20j-oGCyZuhSlshfEf6K-24" value="" style="rounded=1;whiteSpace=wrap;html=1;fontSize=16;" vertex="1" parent="1">
          <mxGeometry x="-670" y="157.5" width="120" height="60" as="geometry" />
        </mxCell>
        <mxCell id="20j-oGCyZuhSlshfEf6K-25" value="OpenI&lt;span style=&quot;background-color: initial;&quot;&gt;D&lt;/span&gt;" style="text;html=1;strokeColor=none;fillColor=none;align=center;verticalAlign=middle;whiteSpace=wrap;rounded=0;shadow=0;glass=0;dashed=1;sketch=0;fontSize=16;" vertex="1" parent="1">
          <mxGeometry x="-640" y="172.5" width="60" height="30" as="geometry" />
        </mxCell>
        <mxCell id="20j-oGCyZuhSlshfEf6K-26" value="" style="rounded=1;whiteSpace=wrap;html=1;fontSize=16;shadow=0;sketch=0;glass=0;gradientColor=none;" vertex="1" parent="1">
          <mxGeometry x="-670" y="235" width="120" height="60" as="geometry" />
        </mxCell>
        <mxCell id="20j-oGCyZuhSlshfEf6K-27" value="Smart on Fhir" style="text;html=1;strokeColor=none;fillColor=none;align=center;verticalAlign=middle;whiteSpace=wrap;rounded=0;shadow=0;glass=0;dashed=1;sketch=0;fontSize=16;" vertex="1" parent="1">
          <mxGeometry x="-670" y="250" width="120" height="30" as="geometry" />
        </mxCell>
        <mxCell id="20j-oGCyZuhSlshfEf6K-28" value="Resource search" style="text;html=1;strokeColor=none;fillColor=none;align=center;verticalAlign=middle;whiteSpace=wrap;rounded=0;shadow=0;glass=0;dashed=1;sketch=0;fontSize=16;" vertex="1" parent="1">
          <mxGeometry x="35" y="680" width="140" height="30" as="geometry" />
        </mxCell>
        <mxCell id="20j-oGCyZuhSlshfEf6K-29" value="Operations" style="text;html=1;strokeColor=none;fillColor=none;align=center;verticalAlign=middle;whiteSpace=wrap;rounded=0;shadow=0;glass=0;dashed=1;sketch=0;fontSize=16;" vertex="1" parent="1">
          <mxGeometry x="60" y="550" width="95" height="30" as="geometry" />
        </mxCell>
        <mxCell id="20j-oGCyZuhSlshfEf6K-30" value="" style="rounded=1;whiteSpace=wrap;html=1;shadow=0;glass=0;dashed=1;sketch=0;fontSize=16;gradientColor=none;" vertex="1" parent="1">
          <mxGeometry x="20" y="397.5" width="170" height="60" as="geometry" />
        </mxCell>
        <mxCell id="20j-oGCyZuhSlshfEf6K-31" value="Resource save" style="text;html=1;strokeColor=none;fillColor=none;align=center;verticalAlign=middle;whiteSpace=wrap;rounded=0;shadow=0;glass=0;dashed=1;sketch=0;fontSize=16;" vertex="1" parent="1">
          <mxGeometry x="10" y="397.5" width="140" height="30" as="geometry" />
        </mxCell>
        <mxCell id="20j-oGCyZuhSlshfEf6K-32" value="Save interceptors" style="text;html=1;strokeColor=none;fillColor=none;align=center;verticalAlign=middle;whiteSpace=wrap;rounded=0;shadow=0;glass=0;dashed=1;sketch=0;fontSize=16;" vertex="1" parent="1">
          <mxGeometry x="60" y="422.5" width="130" height="30" as="geometry" />
        </mxCell>
        <mxCell id="20j-oGCyZuhSlshfEf6K-33" value="Conformance" style="text;html=1;strokeColor=none;fillColor=none;align=center;verticalAlign=middle;whiteSpace=wrap;rounded=0;shadow=0;glass=0;dashed=1;sketch=0;fontSize=16;" vertex="1" parent="1">
          <mxGeometry x="52.5" y="270" width="110" height="30" as="geometry" />
        </mxCell>
        <mxCell id="20j-oGCyZuhSlshfEf6K-34" style="edgeStyle=orthogonalEdgeStyle;rounded=0;orthogonalLoop=1;jettySize=auto;html=1;exitX=0;exitY=0.5;exitDx=0;exitDy=0;exitPerimeter=0;entryX=1;entryY=0.5;entryDx=0;entryDy=0;fontSize=16;dashed=1;" edge="1" parent="1" source="20j-oGCyZuhSlshfEf6K-35" target="20j-oGCyZuhSlshfEf6K-14">
          <mxGeometry relative="1" as="geometry">
            <Array as="points">
              <mxPoint x="-40" y="285" />
              <mxPoint x="-40" y="150" />
            </Array>
          </mxGeometry>
        </mxCell>
        <mxCell id="20j-oGCyZuhSlshfEf6K-35" value="" style="shape=requiredInterface;html=1;verticalLabelPosition=bottom;sketch=0;rounded=1;shadow=0;glass=0;fontSize=16;gradientColor=none;direction=east;rotation=0;" vertex="1" parent="1">
          <mxGeometry x="10" y="275" width="10" height="20" as="geometry" />
        </mxCell>
        <mxCell id="20j-oGCyZuhSlshfEf6K-36" value="" style="shape=providedRequiredInterface;html=1;verticalLabelPosition=bottom;sketch=0;fontSize=16;rotation=-180;" vertex="1" parent="1">
          <mxGeometry x="190" y="555" width="20" height="20" as="geometry" />
        </mxCell>
        <mxCell id="20j-oGCyZuhSlshfEf6K-37" style="edgeStyle=orthogonalEdgeStyle;rounded=0;orthogonalLoop=1;jettySize=auto;html=1;exitX=0;exitY=0.5;exitDx=0;exitDy=0;exitPerimeter=0;entryX=1;entryY=0.5;entryDx=0;entryDy=0;fontSize=16;" edge="1" parent="1" source="20j-oGCyZuhSlshfEf6K-38" target="20j-oGCyZuhSlshfEf6K-43">
          <mxGeometry relative="1" as="geometry" />
        </mxCell>
        <mxCell id="20j-oGCyZuhSlshfEf6K-38" value="" style="shape=providedRequiredInterface;html=1;verticalLabelPosition=bottom;sketch=0;fontSize=16;rotation=-180;direction=west;" vertex="1" parent="1">
          <mxGeometry y="685" width="20" height="20" as="geometry" />
        </mxCell>
        <mxCell id="20j-oGCyZuhSlshfEf6K-39" value="" style="rounded=0;whiteSpace=wrap;html=1;shadow=0;glass=0;sketch=0;fontSize=16;gradientColor=none;" vertex="1" parent="1">
          <mxGeometry x="-348" y="397.5" width="280" height="240" as="geometry" />
        </mxCell>
        <mxCell id="20j-oGCyZuhSlshfEf6K-40" value="" style="rounded=0;whiteSpace=wrap;html=1;shadow=0;glass=0;sketch=0;fontSize=16;fillColor=#dae8fc;strokeColor=#6c8ebf;" vertex="1" parent="1">
          <mxGeometry x="-348" y="397.5" width="280" height="30" as="geometry" />
        </mxCell>
        <mxCell id="20j-oGCyZuhSlshfEf6K-41" value="Storage" style="text;html=1;strokeColor=none;fillColor=none;align=center;verticalAlign=middle;whiteSpace=wrap;rounded=0;shadow=0;glass=0;sketch=0;fontSize=16;" vertex="1" parent="1">
          <mxGeometry x="-237" y="397.5" width="60" height="30" as="geometry" />
        </mxCell>
        <mxCell id="20j-oGCyZuhSlshfEf6K-42" value="" style="rounded=0;whiteSpace=wrap;html=1;shadow=0;glass=0;sketch=0;fontSize=16;gradientColor=none;" vertex="1" parent="1">
          <mxGeometry x="-347" y="680" width="280" height="240" as="geometry" />
        </mxCell>
        <mxCell id="20j-oGCyZuhSlshfEf6K-43" value="" style="rounded=0;whiteSpace=wrap;html=1;shadow=0;glass=0;sketch=0;fontSize=16;fillColor=#dae8fc;strokeColor=#6c8ebf;" vertex="1" parent="1">
          <mxGeometry x="-347" y="680" width="280" height="30" as="geometry" />
        </mxCell>
        <mxCell id="20j-oGCyZuhSlshfEf6K-44" value="Search" style="text;html=1;strokeColor=none;fillColor=none;align=center;verticalAlign=middle;whiteSpace=wrap;rounded=0;shadow=0;glass=0;sketch=0;fontSize=16;" vertex="1" parent="1">
          <mxGeometry x="-237" y="680" width="60" height="30" as="geometry" />
        </mxCell>
        <mxCell id="20j-oGCyZuhSlshfEf6K-45" style="edgeStyle=orthogonalEdgeStyle;rounded=0;orthogonalLoop=1;jettySize=auto;html=1;exitX=0;exitY=0.5;exitDx=0;exitDy=0;exitPerimeter=0;entryX=1;entryY=0.5;entryDx=0;entryDy=0;fontSize=16;" edge="1" parent="1" source="20j-oGCyZuhSlshfEf6K-46" target="20j-oGCyZuhSlshfEf6K-40">
          <mxGeometry relative="1" as="geometry" />
        </mxCell>
        <mxCell id="20j-oGCyZuhSlshfEf6K-46" value="" style="shape=providedRequiredInterface;html=1;verticalLabelPosition=bottom;sketch=0;fontSize=16;rotation=-180;direction=west;" vertex="1" parent="1">
          <mxGeometry y="402.5" width="20" height="20" as="geometry" />
        </mxCell>
        <mxCell id="20j-oGCyZuhSlshfEf6K-47" value="" style="rounded=0;whiteSpace=wrap;html=1;direction=south;dashed=1;" vertex="1" parent="1">
          <mxGeometry x="-337" y="437.5" width="210" height="150" as="geometry" />
        </mxCell>
        <mxCell id="20j-oGCyZuhSlshfEf6K-48" value="" style="rounded=0;whiteSpace=wrap;html=1;dashed=1;" vertex="1" parent="1">
          <mxGeometry x="-327" y="447.5" width="210" height="150" as="geometry" />
        </mxCell>
        <mxCell id="20j-oGCyZuhSlshfEf6K-49" value="" style="rounded=0;whiteSpace=wrap;html=1;" vertex="1" parent="1">
          <mxGeometry x="-317" y="457.5" width="210" height="150" as="geometry" />
        </mxCell>
        <mxCell id="20j-oGCyZuhSlshfEf6K-50" value="Default: Postgres" style="text;html=1;strokeColor=#666666;fillColor=#f5f5f5;align=center;verticalAlign=middle;whiteSpace=wrap;rounded=0;fontColor=#333333;" vertex="1" parent="1">
          <mxGeometry x="-317" y="457.5" width="210" height="30" as="geometry" />
        </mxCell>
        <mxCell id="20j-oGCyZuhSlshfEf6K-51" value="Resource definitions" style="text;html=1;strokeColor=none;fillColor=none;align=center;verticalAlign=middle;whiteSpace=wrap;rounded=0;fontSize=16;" vertex="1" parent="1">
          <mxGeometry x="-257" y="487.5" width="150" height="30" as="geometry" />
        </mxCell>
        <mxCell id="20j-oGCyZuhSlshfEf6K-52" value="" style="rounded=0;whiteSpace=wrap;html=1;" vertex="1" parent="1">
          <mxGeometry x="-336" y="720" width="210" height="150" as="geometry" />
        </mxCell>
        <mxCell id="20j-oGCyZuhSlshfEf6K-53" value="Default: Postgres" style="text;html=1;strokeColor=#666666;fillColor=#f5f5f5;align=center;verticalAlign=middle;whiteSpace=wrap;rounded=0;fontColor=#333333;" vertex="1" parent="1">
          <mxGeometry x="-336" y="720" width="210" height="30" as="geometry" />
        </mxCell>
        <mxCell id="20j-oGCyZuhSlshfEf6K-54" value="Resource definitions" style="text;html=1;strokeColor=none;fillColor=none;align=center;verticalAlign=middle;whiteSpace=wrap;rounded=0;fontSize=16;" vertex="1" parent="1">
          <mxGeometry x="-276" y="754" width="150" height="30" as="geometry" />
        </mxCell>
        <mxCell id="20j-oGCyZuhSlshfEf6K-55" value="DB Transaction" style="text;html=1;strokeColor=none;fillColor=none;align=center;verticalAlign=middle;whiteSpace=wrap;rounded=0;shadow=0;glass=0;dashed=1;sketch=0;fontSize=16;" vertex="1" parent="1">
          <mxGeometry x="20" y="372.5" width="120" height="30" as="geometry" />
        </mxCell>
        <mxCell id="20j-oGCyZuhSlshfEf6K-56" value="" style="shape=providedRequiredInterface;html=1;verticalLabelPosition=bottom;sketch=0;fontSize=16;rotation=-180;" vertex="1" parent="1">
          <mxGeometry x="190" y="430" width="20" height="20" as="geometry" />
        </mxCell>
        <mxCell id="20j-oGCyZuhSlshfEf6K-57" style="edgeStyle=orthogonalEdgeStyle;rounded=0;orthogonalLoop=1;jettySize=auto;html=1;exitX=0;exitY=0.5;exitDx=0;exitDy=0;entryX=0;entryY=0.5;entryDx=0;entryDy=0;entryPerimeter=0;fontSize=16;" edge="1" parent="1" source="20j-oGCyZuhSlshfEf6K-58" target="20j-oGCyZuhSlshfEf6K-59">
          <mxGeometry relative="1" as="geometry" />
        </mxCell>
        <mxCell id="20j-oGCyZuhSlshfEf6K-58" value="Conformance initializer" style="rounded=1;whiteSpace=wrap;html=1;shadow=0;glass=0;sketch=0;fontSize=16;gradientColor=none;" vertex="1" parent="1">
          <mxGeometry x="320" y="255" width="120" height="60" as="geometry" />
        </mxCell>
        <mxCell id="20j-oGCyZuhSlshfEf6K-59" value="" style="shape=providedRequiredInterface;html=1;verticalLabelPosition=bottom;sketch=0;fontSize=16;rotation=-180;direction=east;" vertex="1" parent="1">
          <mxGeometry x="190" y="275" width="20" height="20" as="geometry" />
        </mxCell>
        <mxCell id="20j-oGCyZuhSlshfEf6K-60" style="edgeStyle=orthogonalEdgeStyle;rounded=0;orthogonalLoop=1;jettySize=auto;html=1;exitX=0;exitY=0.5;exitDx=0;exitDy=0;entryX=0;entryY=0.5;entryDx=0;entryDy=0;entryPerimeter=0;fontSize=16;" edge="1" parent="1" source="20j-oGCyZuhSlshfEf6K-62" target="20j-oGCyZuhSlshfEf6K-56">
          <mxGeometry relative="1" as="geometry" />
        </mxCell>
        <mxCell id="20j-oGCyZuhSlshfEf6K-61" style="edgeStyle=orthogonalEdgeStyle;rounded=0;orthogonalLoop=1;jettySize=auto;html=1;exitX=0;exitY=0.5;exitDx=0;exitDy=0;entryX=0;entryY=0.5;entryDx=0;entryDy=0;entryPerimeter=0;fontSize=16;" edge="1" parent="1" source="20j-oGCyZuhSlshfEf6K-62" target="20j-oGCyZuhSlshfEf6K-36">
          <mxGeometry relative="1" as="geometry" />
        </mxCell>
        <mxCell id="20j-oGCyZuhSlshfEf6K-62" value="Profile validator" style="rounded=1;whiteSpace=wrap;html=1;shadow=0;glass=0;sketch=0;fontSize=16;gradientColor=none;" vertex="1" parent="1">
          <mxGeometry x="320" y="410.5" width="120" height="60" as="geometry" />
        </mxCell>
        <mxCell id="20j-oGCyZuhSlshfEf6K-63" style="edgeStyle=orthogonalEdgeStyle;rounded=0;orthogonalLoop=1;jettySize=auto;html=1;exitX=0;exitY=0.5;exitDx=0;exitDy=0;exitPerimeter=0;entryX=1;entryY=0.5;entryDx=0;entryDy=0;fontSize=16;dashed=1;" edge="1" parent="1" source="20j-oGCyZuhSlshfEf6K-35" target="20j-oGCyZuhSlshfEf6K-51">
          <mxGeometry relative="1" as="geometry">
            <Array as="points">
              <mxPoint x="-40" y="285" />
              <mxPoint x="-40" y="503" />
            </Array>
          </mxGeometry>
        </mxCell>
        <mxCell id="20j-oGCyZuhSlshfEf6K-64" style="edgeStyle=orthogonalEdgeStyle;rounded=0;orthogonalLoop=1;jettySize=auto;html=1;exitX=0;exitY=0.5;exitDx=0;exitDy=0;exitPerimeter=0;entryX=1;entryY=0.5;entryDx=0;entryDy=0;fontSize=16;dashed=1;" edge="1" parent="1" source="20j-oGCyZuhSlshfEf6K-35" target="20j-oGCyZuhSlshfEf6K-54">
          <mxGeometry relative="1" as="geometry">
            <Array as="points">
              <mxPoint x="-40" y="285" />
              <mxPoint x="-40" y="769" />
            </Array>
          </mxGeometry>
        </mxCell>
        <mxCell id="20j-oGCyZuhSlshfEf6K-65" style="edgeStyle=orthogonalEdgeStyle;rounded=0;orthogonalLoop=1;jettySize=auto;html=1;exitX=0;exitY=0.5;exitDx=0;exitDy=0;entryX=0;entryY=0.5;entryDx=0;entryDy=0;entryPerimeter=0;fontSize=16;" edge="1" parent="1" source="20j-oGCyZuhSlshfEf6K-67" target="20j-oGCyZuhSlshfEf6K-56">
          <mxGeometry relative="1" as="geometry" />
        </mxCell>
        <mxCell id="20j-oGCyZuhSlshfEf6K-66" style="edgeStyle=orthogonalEdgeStyle;rounded=0;orthogonalLoop=1;jettySize=auto;html=1;exitX=0;exitY=0.5;exitDx=0;exitDy=0;entryX=0;entryY=0.5;entryDx=0;entryDy=0;entryPerimeter=0;fontSize=16;" edge="1" parent="1" source="20j-oGCyZuhSlshfEf6K-67" target="20j-oGCyZuhSlshfEf6K-36">
          <mxGeometry relative="1" as="geometry" />
        </mxCell>
        <mxCell id="20j-oGCyZuhSlshfEf6K-67" value="Other features" style="rounded=1;whiteSpace=wrap;html=1;shadow=0;glass=0;sketch=0;fontSize=16;gradientColor=none;" vertex="1" parent="1">
          <mxGeometry x="320" y="483" width="120" height="60" as="geometry" />
        </mxCell>
        <mxCell id="20j-oGCyZuhSlshfEf6K-68" value="" style="rounded=0;whiteSpace=wrap;html=1;shadow=0;glass=0;sketch=0;fontSize=16;gradientColor=none;" vertex="1" parent="1">
          <mxGeometry x="280" y="40" width="280" height="120" as="geometry" />
        </mxCell>
        <mxCell id="20j-oGCyZuhSlshfEf6K-69" style="edgeStyle=orthogonalEdgeStyle;rounded=0;orthogonalLoop=1;jettySize=auto;html=1;exitX=0;exitY=0.5;exitDx=0;exitDy=0;entryX=1;entryY=0.5;entryDx=0;entryDy=0;fontSize=16;" edge="1" parent="1" source="20j-oGCyZuhSlshfEf6K-70" target="20j-oGCyZuhSlshfEf6K-5">
          <mxGeometry relative="1" as="geometry" />
        </mxCell>
        <mxCell id="20j-oGCyZuhSlshfEf6K-70" value="Fhir structures" style="rounded=0;whiteSpace=wrap;html=1;shadow=0;glass=0;sketch=0;fontSize=16;fillColor=#dae8fc;strokeColor=#6c8ebf;" vertex="1" parent="1">
          <mxGeometry x="280" y="40" width="280" height="30" as="geometry" />
        </mxCell>
        <mxCell id="20j-oGCyZuhSlshfEf6K-71" value="Json" style="text;html=1;strokeColor=none;fillColor=none;align=center;verticalAlign=middle;whiteSpace=wrap;rounded=0;shadow=0;glass=0;sketch=0;fontSize=16;" vertex="1" parent="1">
          <mxGeometry x="290" y="80" width="60" height="30" as="geometry" />
        </mxCell>
        <mxCell id="20j-oGCyZuhSlshfEf6K-72" value="Xml" style="text;html=1;strokeColor=none;fillColor=none;align=center;verticalAlign=middle;whiteSpace=wrap;rounded=0;shadow=0;glass=0;sketch=0;fontSize=16;" vertex="1" parent="1">
          <mxGeometry x="290" y="112.5" width="60" height="30" as="geometry" />
        </mxCell>
      </root>
    </mxGraphModel>
  </diagram>
</mxfile>
